<?xml version="1.0" encoding="UTF-8"?>
<svg xmlns="http://www.w3.org/2000/svg" version="1" viewBox="0 0 24 24" enable-background="new 0 0 24 24">
    <path d="M12,2C6.5,2,2,6.5,2,12c0,5.5,4.5,10,10,10s10-4.5,10-10C22,6.5,17.5,2,12,2z M11,13H9v2H8v-2H6v-1h2v-2h1v2h2V13z M16.3,15.3c-0.4,0.5-1,0.7-1.8,0.7c-0.7,0-1.2-0.2-1.7-0.6S12,14.6,12,13.9l0,0l1.5-0.1c0,0.3,0.1,0.6,0.2,0.8s0.4,0.3,0.7,0.3 c0.3,0,0.5-0.1,0.7-0.4c0.1-0.2,0.2-0.6,0.2-1.1c0-0.5-0.1-0.8-0.2-1.1c-0.2-0.3-0.4-0.4-0.7-0.4c-0.2,0-0.4,0.1-0.6,0.2 c-0.1,0.1-0.2,0.3-0.3,0.5l-1.4-0.1L12.6,8h4.1v1.2h-2.8l-0.2,1.9c0.1-0.1,0.3-0.2,0.5-0.3c0.2-0.1,0.4-0.1,0.6-0.1 c0.7,0,1.2,0.2,1.5,0.7s0.5,1.1,0.5,2C16.9,14.2,16.7,14.8,16.3,15.3z"/>
</svg>