<?xml version="1.0" encoding="UTF-8"?>
<svg xmlns="http://www.w3.org/2000/svg" version="1" viewBox="0 0 24 24" enable-background="new 0 0 24 24">
    <path d="M12,2C6.5,2,2,6.5,2,12c0,5.5,4.5,10,10,10s10-4.5,10-10C22,6.5,17.5,2,12,2z M11,13H9v2H8v-2H6v-1h2v-2h1v2h2V13z M16.8,16H12v-1l2.2-2.8c0.3-0.4,0.5-0.8,0.7-1.1c0.1-0.3,0.2-0.6,0.2-0.8c0-0.3-0.1-0.6-0.2-0.8c-0.1-0.2-0.3-0.3-0.6-0.3 c-0.3,0-0.5,0.1-0.7,0.4c-0.2,0.3-0.2,0.6-0.2,1h-1.5l0,0c0-0.7,0.2-1.3,0.6-1.8c0.4-0.5,1-0.7,1.8-0.7c0.7,0,1.3,0.2,1.7,0.6 c0.4,0.4,0.6,1,0.6,1.7c0,0.5-0.1,0.9-0.4,1.3C16,12,15.6,12.5,15,13.2l-1.1,1.6h2.8V16z"/>
</svg>