<?xml version="1.0" encoding="UTF-8"?>
<svg xmlns="http://www.w3.org/2000/svg" version="1" viewBox="0 0 24 24" enable-background="new 0 0 24 24">
    <path d="M12,2C6.5,2,2,6.5,2,12c0,5.5,4.5,10,10,10s10-4.5,10-10C22,6.5,17.5,2,12,2z M11,13H9v2H8v-2H6v-1h2v-2h1v2h2V13z M16.2,15.4c-0.5,0.4-1.1,0.6-1.9,0.6c-0.7,0-1.2-0.2-1.7-0.6c-0.5-0.4-0.7-0.9-0.7-1.7l0,0h1.5c0,0.3,0.1,0.6,0.3,0.8 c0.2,0.2,0.4,0.3,0.7,0.3c0.3,0,0.6-0.1,0.8-0.3s0.3-0.5,0.3-0.8c0-0.4-0.1-0.7-0.3-0.9s-0.4-0.3-0.8-0.3h-0.8v-1.2h0.8 c0.3,0,0.5-0.1,0.7-0.3s0.2-0.5,0.2-0.8c0-0.3-0.1-0.6-0.2-0.8c-0.2-0.2-0.4-0.3-0.7-0.3c-0.2,0-0.4,0.1-0.6,0.3 c-0.2,0.2-0.2,0.4-0.2,0.7H12l0,0c0-0.6,0.2-1.1,0.7-1.5c0.5-0.4,1-0.6,1.7-0.6c0.8,0,1.3,0.2,1.8,0.6s0.7,0.9,0.7,1.7 c0,0.4-0.1,0.7-0.3,1c-0.2,0.3-0.5,0.5-0.8,0.7c0.4,0.2,0.7,0.4,0.9,0.7s0.3,0.7,0.3,1.2C16.9,14.5,16.7,15,16.2,15.4z"/>
</svg>